# xmcd
#
# Track frame offsets:
#	150
#	20249
#	38113
#	51954
#	68690
#	85065
#	100698
#	116448
#	129868
#	143388
#	157748
#	174992
#	190455
#	208216
#	226043
#	241934
#	258438
#
# Disc length: 3677
#
# Revision: 3
# Processed by: cddbd v1.5.1PL0 Copyright (c) Steve Scherf et al.
# Submitted via: FreeRIP 2.60 
# Normalized: r2:DSETVAR1,TDELIM( - )
#
DISCID=d50e5b11
DTITLE=Various Artist - Promo Only Country Radio August 2001
DYEAR=2001
DGENRE=Country
TTITLE0=Tim McGraw - Angry All The Time
TTITLE1=Alan Jackson - Where I Come From
TTITLE2=Reba McEntire - I'm A Survivor
TTITLE3=Collin Raye - Ain't Nobody Gonna Take That From Me
TTITLE4=Chad Brock - Tell Me How
TTITLE5=Lila McCann - Because Of You
TTITLE6=Steve Holy - Good Morning Beautiful
TTITLE7=Mary Chapin Carpenter - This Is Me Leaving You
TTITLE8=Dwight Yoakam with Buck Owens - I Was There
TTITLE9=Jeffrey Steele - Somethin' In The Water
TTITLE10=3 Of Hearts - Arizona Rain
TTITLE11=Brian McComas - Night Disappear With You
TTITLE12=Confederate Railroad - That's What Brothers Do
TTITLE13=Leslie Satcher - Love Letters From Old Mexico
TTITLE14=Bob Delevante - Penny Black
TTITLE15=Rosie Flores - Country Boy
TTITLE16=The Groobees - Cloud Nine
EXTD=
EXTT0=
EXTT1=
EXTT2=
EXTT3=
EXTT4=
EXTT5=
EXTT6=
EXTT7=
EXTT8=
EXTT9=
EXTT10=
EXTT11=
EXTT12=
EXTT13=
EXTT14=
EXTT15=
EXTT16=
PLAYORDER=
